<?xml version="1.0" encoding="UTF-8" standalone="no"?>
<svg
   xmlns:dc="http://purl.org/dc/elements/1.1/"
   xmlns:cc="http://creativecommons.org/ns#"
   xmlns:rdf="http://www.w3.org/1999/02/22-rdf-syntax-ns#"
   xmlns:svg="http://www.w3.org/2000/svg"
   xmlns="http://www.w3.org/2000/svg"
   xmlns:sodipodi="http://sodipodi.sourceforge.net/DTD/sodipodi-0.dtd"
   xmlns:inkscape="http://www.inkscape.org/namespaces/inkscape"
   width="607.07483"
   height="601.48199"
   id="svg2"
   version="1.1"
   inkscape:version="0.91 r13725"
   sodipodi:docname="Flag_of_Algeria.svg">
  <metadata
     id="metadata14">
    <rdf:RDF>
      <cc:Work
         rdf:about="">
        <dc:format>image/svg+xml</dc:format>
        <dc:type
           rdf:resource="http://purl.org/dc/dcmitype/StillImage" />
        <dc:title></dc:title>
      </cc:Work>
    </rdf:RDF>
  </metadata>
  <defs
     id="defs12" />
  <sodipodi:namedview
     pagecolor="#ffffff"
     bordercolor="#666666"
     borderopacity="1"
     objecttolerance="10"
     gridtolerance="10"
     guidetolerance="10"
     inkscape:pageopacity="0"
     inkscape:pageshadow="2"
     inkscape:window-width="1600"
     inkscape:window-height="837"
     id="namedview10"
     showgrid="false"
     fit-margin-top="0"
     fit-margin-left="0"
     fit-margin-right="0"
     fit-margin-bottom="0"
     inkscape:zoom="1.0292162"
     inkscape:cx="192.40643"
     inkscape:cy="300.73208"
     inkscape:window-x="-8"
     inkscape:window-y="-8"
     inkscape:window-maximized="1"
     inkscape:current-layer="svg2" />
  <path
     style="fill:#ffffff;stroke:#006233;stroke-width:1.5;stroke-miterlimit:0;stroke-dasharray:none;stroke-opacity:1"
     d="m 444.28321,0.75189511 c -0.22488,-0.00912 -0.45498,0.0212718 -0.67969,0.0429687 -0.36781,-0.02785 -0.71155,0.12958676 -1.08594,0.0585938 -0.34456,0.189928 -0.7171,0.11169275 -1.08789,0.1835938 -0.61931,0.22998 -1.0523,0.7673048 -1.45312,1.2636718 -0.42857,-0.05089 -0.46326,0.5546513 -0.91016,0.5351563 -0.47652,0.04557 -0.69663,0.488447 -0.69922,0.921875 -0.18106,0.269576 -0.72051,0.607074 -0.23437,0.890625 0.15307,0.272108 0.37767,0.7103075 0.14257,0.9921875 -0.27747,0.484569 -0.61226,0.98841 -1.19531,1.109375 -0.3953,0.224005 -0.85462,0.256221 -1.26562,0.40625 -0.3671,0.260563 -0.87155,0.1130589 -1.21875,0.4355469 -0.6187,0.196461 -1.21904,0.4276476 -1.78906,0.7285156 -0.69967,0.0051 -1.17228,0.6736067 -1.87305,0.7304687 -0.47526,0.1209151 -0.95409,0.1693474 -1.4336,0.2402344 -0.77283,0.06253 -1.55117,0.1643508 -2.27929,0.4492188 -0.63905,0.19003 -1.3151,0.061786 -1.94727,0.2050781 -0.33302,-0.08856 -0.69684,-0.2087915 -0.97265,-0.4140625 -0.28213,-0.460872 -0.87142,-0.2481971 -1.3086,-0.2207031 -0.3838,0.390186 -1.10904,0.086265 -1.40039,0.6425781 -0.22953,0.270437 -0.46299,0.560384 -0.83789,0.648437 -0.24694,0.375554 -0.66408,0.594245 -1.11133,0.494141 -0.42198,0.146485 -0.90349,0.1287 -1.21484,0.5 -0.45171,0.537025 -0.7966,1.174356 -1.16992,1.771485 -0.20077,0.328868 -0.43637,0.698066 -0.86914,0.666015 -0.38295,0.293019 -0.89466,0.284995 -1.20703,0.679688 -0.35899,0.439201 -1.04624,-0.173954 -1.32422,0.373047 -0.21185,0.284513 -0.68153,0.100991 -0.98828,0.253906 -0.63181,0.11818 -1.30707,0.02322 -1.9004,0.308594 -0.62826,0.01468 -1.25754,-0.0061 -1.88086,-0.101563 -0.75459,0.04658 -1.34534,-0.508408 -2.07421,-0.568359 -0.60549,-0.218283 -1.24958,-0.418991 -1.70508,-0.902344 -0.6264,-0.333527 -1.52623,-0.525168 -1.73438,-1.300781 0.0544,-0.579913 0.76619,-0.954783 0.71875,-1.572266 -0.55166,-0.292868 -1.24959,-0.152823 -1.79492,-0.498047 -0.4237,-0.145877 -0.59822,-0.665062 -1.0957,-0.683594 -0.47409,-0.08785 -0.9529,-0.1779992 -1.28906,-0.5566402 -0.48421,-0.1266871 -0.7421,-0.7370183 -1.30469,-0.6601563 -0.82387,0.04507 -1.40783,-0.6673722 -2.19727,-0.7539063 -0.39519,-0.143599 -0.8992,-0.1385472 -1.12695,-0.5664062 -0.45925,-0.400161 -1.10443,-0.2083091 -1.63477,-0.095703 -0.84321,0.245626 -1.7492,0.1163624 -2.60546,-0.00977 -0.37131,-0.109015 -0.69117,0.2659113 -1.08399,0.097656 -0.60148,-0.04101 -1.20091,-0.021634 -1.79297,0.1015625 -0.6263,0.0096 -1.24993,-0.067521 -1.86133,-0.1894531 -0.39728,-0.303501 -0.87424,-0.4227798 -1.36914,-0.4179688 -0.36163,-0.212613 -0.8479,-0.3364196 -1.15039,0.037109 -0.65754,0.385933 -1.4421,0.1382494 -2.16211,0.2089844 -0.45495,-0.0076 -0.89155,-0.1147303 -1.29101,-0.3164063 -0.70877,-0.0841 -1.47578,-0.048386 -2.08203,0.3730469 -0.43484,0.226284 -0.94305,0.2048791 -1.34766,-0.060547 -0.3672,-0.133573 -0.74474,-0.1598486 -1.07422,0.068359 -0.7944,0.477682 -1.74765,0.2597015 -2.60742,0.1328125 -0.77799,-0.128763 -1.60616,-0.2901869 -2.36719,-0.013672 -0.44239,0.06896 -1.02724,0.093727 -1.35742,-0.2382812 -0.26756,-0.343654 -0.67183,-0.8723464 -1.16992,-0.5839844 -0.68032,0.325121 -1.46504,0.1610654 -2.16602,0.4121094 -0.39661,0.111142 -0.76846,0.3299964 -1.20508,0.2871094 -0.62234,0.08856 -1.24258,0.3698033 -1.70507,0.7714843 -0.2634,0.541481 -0.7207,0.933578 -1.23829,1.21875 -0.52508,0.350844 -1.0857,0.7081092 -1.69726,0.8613284 -0.5431,0.01165 -1.11055,0.07583 -1.58398,0.345703 -0.0825,0.539658 -0.70002,0.294589 -1.04297,0.439453 -0.57414,0.43677 -1.32947,0.621704 -2.04883,0.501954 -0.66938,-0.0243 -1.32887,-0.154247 -1.99805,-0.08594 -0.4708,-0.0476 -0.88056,-0.355734 -1.375,-0.308594 -0.93845,0.01873 -1.87233,-0.346328 -2.55078,-0.994141 -0.33671,-0.1608638 -0.85794,-0.02082 -0.85156,0.408203 0.53394,0.56685 -0.0379,1.373638 -0.62696,1.617188 -0.42978,0.381072 -1.0176,0.180693 -1.52343,0.322266 -0.87339,0.137776 -2.04251,-0.197111 -2.24024,-1.181641 -0.28806,-0.470341 -0.78276,-0.840498 -1.28515,-1.064453 -0.62938,-0.1578272 -1.26457,-0.03344 -1.86524,0.171875 -0.68716,-0.0243 -1.40489,-0.0052 -2.02344,0.320312 -0.12638,0.747918 -0.85866,1.103248 -1.48242,1.375001 -0.23803,0.29945 0.008,0.767557 -0.29101,1.076172 -0.42036,0.575406 -1.12358,0.837901 -1.60157,1.363281 -0.48857,0.180611 -1.01458,0.249786 -1.42578,0.603515 -0.41323,0.366591 -1.02703,0.332242 -1.38086,0.775391 -0.9382,0.583508 -1.85596,1.323538 -2.98242,1.458985 -0.57607,0.155345 -1.18386,0.135469 -1.77734,0.185546 -0.39778,0.0096 -0.79395,0.09971 -1.18945,-0.0332 -0.74327,0.0056 -1.48594,-0.149744 -2.22266,-0.25 -0.41429,-0.132357 0.0511,-0.718071 -0.38477,-0.880859 -0.70503,-0.452062 -1.63255,-0.611673 -2.41211,-0.246094 -0.46214,0.191397 -0.97804,0.156002 -1.41015,0.425781 -0.49616,0.249474 -1.12453,-0.05841 -1.58008,0.314453 -0.49824,0.134485 -1.03454,0.163777 -1.44336,0.519532 -0.7618,0.328109 -1.60347,0.403611 -2.4082,0.576172 -0.57207,0.0051 -1.08163,0.323001 -1.66407,0.269531 -0.77298,-0.09144 -1.50837,0.315937 -2.27148,0.05664 -0.60745,-0.198739 -1.24868,-0.335322 -1.87695,-0.144532 -0.37591,0.0801 -0.76272,0.0095 -1.12891,0.0293 -0.5153,0.335654 -1.14969,0.454978 -1.75391,0.482422 -0.5784,-0.175904 -1.17757,-0.109955 -1.71484,0.158203 -0.59379,-0.04658 -1.19213,-0.06864 -1.78906,-0.01563 -0.0386,-0.0027 -0.0736,0.01205 -0.11133,0.01367 l 0,530.017572 c 0.2617,1.17741 0.16956,2.47918 0.34766,3.6543 0.49632,1.40104 2.36596,1.82137 3.1914,2.99609 0.19671,1.05673 1.06078,1.22598 1.96485,0.98243 1.18742,-0.30988 1.39705,1.02825 1.85351,1.7832 0.68706,0.96003 1.1125,-0.86703 1.95703,-0.43359 0.58973,0.30936 1.0543,0.84386 1.63867,0.23828 0.81345,-0.48204 0.75832,1.31633 1.70704,1.29101 1.47857,0.0668 1.42976,-2.22846 2.76953,-2.57226 2.66706,0.50026 4.33123,3.05618 5.54297,5.28711 0.34673,0.89572 0.61909,2.7928 1.95507,2.42773 1.3254,-0.68457 1.60372,1.39373 2.86719,1.29297 0.89232,0.0825 1.56724,0.75693 2.53906,0.49414 1.25774,-0.0567 2.47409,0.0215 3.69532,0.21484 1.44758,1.21067 3.41934,0.96262 5.15234,1.38086 1.26555,0.0405 2.39727,0.56718 3.21289,1.51758 1.31194,0.39393 2.27106,1.3958 3.44922,2.08594 0.58066,0.78635 2.02194,0.32273 2.39258,1.00781 -0.50077,1.02129 0.24306,2.06312 -0.35742,3.05859 -0.49733,0.89622 -0.17843,1.73853 0.38867,2.42969 -0.4475,1.19446 -1.19411,2.82377 -0.0234,3.9043 1.04909,0.49672 -0.15157,1.23904 0.082,1.9707 0.64743,0.97319 1.63168,2.31234 0.61914,3.41211 -0.96573,0.59191 -2.29332,1.73856 -1.73633,2.96289 -0.42138,0.91395 -1.12275,1.69442 -1.66601,2.56836 -1.09952,0.2633 -1.22286,1.46524 -0.64258,2.26172 -0.0385,0.85065 1.04695,1.2365 1.63086,1.7793 0.95572,0.66735 1.87038,1.40238 2.80078,2.12695 0.148,0.99648 1.19828,1.30739 1.86133,1.875 8.47686,-1.88713 16.98086,-3.67885 25.45508,-5.5918 15.7499,-3.66287 31.61777,-6.80456 47.42383,-10.21679 2.948,-2.89982 5.78951,-5.90349 8.76757,-8.77344 6.85297,-6.94041 13.75492,-13.83532 20.80664,-20.57422 5.61906,-5.66444 11.26153,-11.29612 17.39454,-16.41016 3.57714,-2.85526 7.506,-5.25794 11.24609,-7.89648 15.42624,-10.49747 30.78374,-21.10598 46.2793,-31.49609 10.66287,-7.27916 21.57639,-14.18467 32.2539,-21.4375 13.80882,-9.14149 27.65806,-18.23762 41.64649,-27.09961 0.91619,-0.62431 2.04844,-1.25401 2.73047,-1.83985 -3.74358,-8.0645 -7.49477,-16.13178 -11.27344,-24.18164 -0.59065,0.53125 -1.45308,0.325 -2.13086,0.75196 -0.92763,0.79298 -2.24007,0.661 -3.20313,1.375 -2.68243,-2.02891 -5.36444,-4.05894 -8.04687,-6.0879 -0.59906,-0.71713 -1.76454,-0.52661 -2.31641,-1.17382 -0.94245,-0.0765 -1.02854,-1.19043 -1.72461,-1.66993 -1.12578,-0.46533 -1.21358,-2.00503 -2.38672,-2.36914 -0.5833,-0.50549 -1.28471,-0.35515 -1.92578,-0.64062 -0.7387,-0.67597 -1.60098,-0.0972 -2.07031,0.56445 0.43196,0.70665 -0.25286,0.73702 -0.75586,1.10938 -0.16471,-0.67586 -1.29802,-0.99637 -1.13281,-1.81446 -0.51348,-0.42401 -1.34336,-0.19393 -1.94727,-0.15039 -0.46139,-0.1204 -0.86763,0.26442 -1.23047,-0.0937 -0.77511,-0.0395 -0.81766,1.3063 -1.3789,0.99414 -0.81652,0.46847 -1.70666,0.0921 -2.58399,-0.0254 -0.67593,0.32912 -1.3963,0.39373 -2.14648,0.38867 -0.5622,-0.5031 -1.67245,0.3043 -1.88672,-0.62109 -0.60145,-0.43799 -0.901,-1.41649 -1.59766,-1.61133 -0.49633,-0.59364 -1.14663,-0.98645 -1.81445,-1.4414 -0.65444,-0.34623 -1.04962,-1.20109 -0.99219,-1.91407 -0.97695,-1.11506 -1.02862,-2.78024 -2.00586,-3.93945 -1.01921,-0.73278 -0.6329,-2.13625 -1.49414,-2.98437 -0.3392,-0.78731 -1.09342,-1.36364 -1.33398,-2.17383 0.13828,-4.20729 0.0392,-8.4759 -0.0312,-12.70703 -6.15908,-9.17227 -12.6138,-18.14859 -18.48047,-27.51367 0.10876,-0.68741 1.05578,-1.30542 1.51953,-1.97071 0.30567,-1.5617 1.22548,-2.92375 1.70899,-4.45508 3.43279,-1.48712 6.86603,-2.97376 10.29882,-4.46093 0.46908,-1.34282 0.93898,-2.68653 1.40821,-4.0293 0.0279,-1.73017 -0.53613,-3.50891 0.0566,-5.23047 -0.0697,-0.81319 0.85435,-1.97995 -0.11914,-2.42969 -0.39733,-0.68224 -0.74766,-1.32072 -1.21289,-2.00195 -0.61353,-1.4177 -0.58576,-3.02355 -1.03321,-4.49609 0.14608,-0.86984 -0.3771,-1.74259 -0.43164,-2.55664 -0.33626,-0.47662 -0.69552,-0.9728 -0.64843,-1.61914 0.005,-1.14459 -0.58031,-2.16659 -0.34375,-3.31446 0.10815,0.55328 0.76245,-1.94495 -0.006,-1.91406 0.12537,-0.68154 0.22667,-1.40014 0.61914,-1.99024 0.16404,-0.30162 0.21911,-0.58395 0.25,-1.4707 0.20264,-0.41839 0.34041,-1.03345 0.82422,-1.25781 0.73131,-0.0935 0.92245,-0.78893 0.70898,-1.42383 0.80386,-1.07552 -0.43471,-0.70153 -1.22461,-0.74609 -0.71976,-0.59678 0.5698,-0.71514 0.99609,-0.76172 0.53723,-0.3433 1.08725,-0.98022 1.25196,-1.7207 0.70002,-0.97501 0.65427,-2.14701 1.22461,-3.16602 -0.26254,-1.06731 0.20407,-2.08806 0.041,-3.14844 -0.33099,-0.7664 0.71125,-1.07302 0.54102,-1.75 -1.19522,-4.48092 -2.50793,-8.95404 -3.79297,-13.41992 0.55626,-5.02508 1.31342,-10.02297 1.95703,-15.03711 0.0585,-2.80772 -0.54522,-5.61612 -0.71484,-8.42773 -0.67921,-4.65611 -1.83231,-9.24028 -2.72266,-13.86328 -1.87928,-4.64497 -4.0675,-9.19163 -6.0957,-13.78516 -0.76417,-2.24405 -2.31067,-4.04232 -3.76367,-5.86328 -1.34195,-1.16397 -1.26607,-2.99308 -1.61914,-4.5918 -0.30133,-1.01091 0.65989,-1.45288 1.44335,-1.36133 1.10894,-0.5987 2.2205,-1.12891 3.46094,-1.41601 -3.35203,-14.70976 -6.70074,-29.38352 -10.05859,-44.08985 -1.30525,-5.00326 -2.14291,-10.15125 -3.6875,-15.07422 -0.41753,-0.84461 -0.0759,-2.25499 -1.09961,-2.53515 -6.97551,-4.24283 -13.60917,-9.00279 -20.41602,-13.50391 -0.32902,-3.47872 -0.65931,-6.95682 -0.98828,-10.43554 -1.39122,-2.5714 -3.25491,-4.99224 -5.41015,-6.98829 -0.9144,-0.52088 -0.7074,-1.45628 -0.63282,-2.33984 -2.11979,-0.99972 -4.257,-1.9657 -6.42773,-2.85351 0.64032,0.23043 -1.8257,0.28099 -2.06641,-0.41407 -1.24044,-2.34223 -1.62941,-4.96162 -2.16406,-7.52148 -1.05319,-1.75214 -2.35229,-3.49194 -3.50391,-5.23633 -0.36938,-1.03907 -1.27106,-2.07576 -0.89257,-3.23047 -0.0233,-1.05937 0.0133,-2.35117 -0.74414,-3.17773 -0.2066,-0.6709 -1.85221,-0.54802 -1.17969,-1.33203 0.64938,-0.63334 0.38454,-1.39547 0.12109,-2.15235 -0.90082,-0.9624 0.39847,-1.58807 0.21289,-2.54101 -0.52928,-0.90407 0.96084,-1.94572 -0.0918,-2.56836 -0.68403,-0.42032 -0.65196,-1.49544 0.32812,-1.33594 0.94573,-0.40523 0.6845,-0.44318 0.83984,-0.89453 0.98316,0.0268 0.75931,-1.184602 1.36328,-1.820312 0.447,-1.5012 1.45695,-1.104117 2.54883,-0.472657 1.00762,0.46543 1.84371,-0.964621 2.79102,-1.300781 -0.24244,-1.65958 0.81511,-3.162888 1.18945,-4.767578 0.042,0.21463 -0.005,-0.612575 0.0293,-0.828125 -0.15944,-0.52437 0.0194,-0.955219 0.60351,-0.818359 0.42947,-0.49611 1.09488,-0.103194 1.60547,-0.470704 -0.10972,-0.48148 0.55457,-0.495703 0.61133,-0.783203 0.34299,-0.1512 0.86184,-0.06759 1.24609,-0.33789 0.77617,0.0258 0.81587,-1.206316 1.64454,-1.285157 0.56043,0.102891 0.69193,-0.248415 0.90429,-0.603515 0.24715,-0.11241 0.63819,0.02628 0.97461,0.01758 0.005,-0.35712 0.42401,-0.470897 0.57227,-0.617187 0.56336,0.125979 0.27679,-0.434967 0.67578,-0.529297 -0.23089,0.56538 0.47331,-0.124962 0.14648,-0.544922 -0.10837,-0.25338 0.47652,0.112237 0.24805,-0.382813 0.49297,0.16178 0.88695,-0.0054 1.27344,-0.05273 0.7741,0.0248 -0.66903,-0.412846 -0.0977,-0.478516 -0.0666,-0.44351 0.22188,-0.451957 0.50781,-0.623047 0.0106,-0.20877 0.37789,-0.114872 0.68165,-0.138671 -0.46061,-0.34938 -0.12446,-0.856026 0.37109,-0.947266 0.27824,0 0.6191,-0.320051 0.45312,-0.619141 -0.46816,0.23696 -1.55464,-0.280751 -1.04687,-0.925781 0.82468,0.13545 0.97038,-0.665402 1.44726,-1.138672 0,-0.63415 0.53323,-0.05964 0.81446,-0.320312 -0.25824,-0.11889 -0.83364,-0.430009 -0.90235,-0.917969 -0.49819,-0.47141 0.1086,-1.264355 -0.22656,-1.677735 0.084,-0.66133 -0.35438,-1.069811 -0.26172,-1.701171 -0.4713,-0.3354 -0.25511,-0.83238 -0.42383,-1.28125 -0.26309,-0.45302 -0.36291,-0.909237 0.3086,-1.035157 0.42365,-0.29743 0.82603,-0.64747 1.31054,-0.52539 0.1672,-0.45723 0.14269,-1.398198 0.082,-1.992188 0.3699,-0.99916 0.78253,-2.040037 1.19726,-2.929687 0.48149,-0.60305 1.44998,-0.872862 1.6875,-1.732422 0.21839,-1.15785 0.9583,-2.170164 1.82617,-2.990235 -0.19637,-0.122439 -1.10818,0.299846 -1.45898,-0.177734 -0.55443,-0.0365 -0.81522,-0.189138 -1.25195,-0.580078 -0.49748,-0.5033 -1.29005,-0.381178 -1.72266,-0.892578 0.10947,-0.46584 -0.77027,-0.921003 -0.25586,-1.220703 0.16643,-0.55171 -0.16665,-1.281006 0.0215,-1.847657 0.16491,-0.33155 0.66445,-1.127209 -0.0449,-1.0625 0.57582,-0.189419 0.46458,-1.044749 0.98828,-1.349609 0,-0.59774 1.04413,-0.187707 1.03907,-0.654297 0.0966,-0.58649 -0.64522,-0.906524 -0.69727,-1.558594 0.20467,-0.75424 -0.16889,-1.517479 -0.22656,-2.287109 -0.24841,-0.71582 0.41856,-1.36685 0.0703,-2.056641 0.22587,-0.540269 -0.21654,-0.809257 -0.5918,-1.023437 -0.87014,0.0699 -1.02618,-0.773955 -1.63085,-1.298828 -0.63617,-0.138636 -0.42007,-0.827672 -0.61329,-1.322266 0.27539,-0.542595 0.12181,-1.056897 0.34375,-1.605469 0.16495,-0.614849 -0.22712,-1.655488 -0.006,-2.347656 0.60149,-0.415453 -0.46571,-0.176406 -0.21289,-0.398437 0.64746,-0.356717 -0.61976,-0.376068 -0.0527,-0.763672 -0.0606,-0.452315 0.22384,-1.12775 0.77344,-1.132813 0.16643,-0.528114 0.2222,-1.551907 0.26172,-2.236328 -0.32715,-0.70827 0.47142,-1.178604 0.51953,-1.822265 0.0273,-0.632218 1.20694,-0.73192 0.63867,-1.414063 0.32223,-0.89278 -0.95936,-1.046922 -0.86914,-1.857422 0.44178,-0.342743 0.8143,-0.707625 0.91992,-1.3125 0.36664,-0.389123 0.73425,-1.452151 -0.0234,-1.660156 0.12158,-0.401376 0.53061,-0.953059 1.0293,-1.091797 0.6148,-0.110585 0.35494,-0.403398 0.0195,-0.810547 -0.1713,0.48953 -0.15612,-1.050303 0.35352,-1.345703 0.62923,-0.401275 0.0326,-1.149454 0.55664,-1.523437 0.43439,-0.700118 -0.70868,-0.405731 -1.04297,-0.732422 -0.33681,-0.841691 -0.68331,-0.129689 -1.25,-0.04883 0.16279,0.216056 -0.40646,0.276064 -0.5293,-0.15625 -0.11286,-0.339552 -0.95143,-0.367341 -1.35351,-0.101563 -0.44508,-0.399756 -1.16484,-0.139874 -1.7168,-0.332031 -0.13637,-0.678396 -1.00914,-0.06965 -1.13477,-0.638672 -0.28022,-0.208562 -0.0331,-0.641552 -0.29101,-0.808594 -0.3269,-0.256715 0.31279,-0.143508 0.4414,-0.365234 0.043,-0.414441 0.40856,-0.332067 0.66993,-0.150391 0.21029,-0.129624 0.70017,-0.15053 0.83789,-0.34375 0.32675,-0.147193 0.67392,-0.257898 0.9082,-0.55664 0.30608,0 0.68381,-0.05641 1.03516,-0.109375 0.26208,-0.274083 0.62887,-0.312079 0.86523,-0.583985 0.14673,-0.228106 0.10675,-0.702882 0.55273,-0.628906 0.48908,-0.173067 0.84251,-0.639181 1.34571,-0.679687 0.4784,0.317171 0.36758,-0.619577 0.7207,-0.648438 0.35748,-0.281425 0.69159,-0.04895 1.13672,-0.09766 0.14375,-0.273626 0.31335,-0.836696 0.42773,-1.261719 -0.55738,-0.221879 0.25061,-0.176639 0.31446,-0.414063 0.2724,-0.297069 0.41799,-0.534622 0.49804,-0.867187 -0.30416,-0.104863 -0.1796,-0.615438 -0.49804,-0.775391 -0.46072,-0.320413 0.18977,-0.739657 -0.21094,-0.929687 -0.31363,-0.132357 -0.93091,0.219054 -0.97852,-0.367188 0.31237,-0.06415 0.80809,-0.412546 1.23438,-0.455078 0.39221,-0.416365 1.02679,-0.136545 1.55273,-0.298828 0.18714,0.159042 0.52054,0.336289 0.82813,0.121094 0.13283,0.02937 0.38169,0.111543 0.52929,0.0918 0.30944,-0.09302 0.52726,-0.773222 0.96094,-0.792969 0.22716,0.398187 0.51629,0.04668 0.70703,-0.123046 0.52311,-0.158485 1.21229,-0.354576 1.45899,-0.884766 0.38123,-0.405022 -0.21588,-0.4542832 -0.36328,-0.7695313 -0.25712,0.1255221 -0.60416,-0.080872 -0.91211,-0.1503906 -0.4145,0.151801 -0.0318,-0.2761324 -0.10157,-0.5058594 0.0324,-0.520164 -0.0962,-1.3742797 0.66407,-1.4492187 0.0446,-0.257575 -0.30367,-0.5380124 -0.35547,-0.9589844 l -0.61524,0.109375 c -0.53454,-0.01519 -0.89935,0.5033567 -1.44726,0.4941407 -1.00018,0.07377 -1.81691,0.7287843 -2.78711,0.8964843 -0.72665,0.0481 -1.62544,0.2040478 -2.13477,-0.4570312 -0.42396,-0.349223 -1.02651,-0.034801 -1.48242,-0.3515625 -0.69571,-0.151041 -1.44798,0.399048 -2.10156,0 -0.16694,-0.394743 -0.58356,-0.4246764 -0.89258,-0.6308594 -0.21054,-0.383249 -0.7281,-0.543011 -1.06836,-0.21875 -0.90114,0.667054 -1.97798,1.0062969 -2.96094,1.5292969 -0.59895,0.265222 -1.19903,0.5292572 -1.74218,0.8945312 -0.54705,0.320818 -1.22385,0.00694 -1.78321,0.3339844 -0.5868,0.250335 -1.06232,0.8144908 -1.75976,0.7148437 -0.81804,-0.08517 -1.65464,-0.023338 -2.45117,-0.2617187 -0.80351,-0.215904 -1.75245,-0.3212183 -2.33985,-0.9570313 -0.25844,-0.365426 0.0628,-0.6754702 0.375,-0.8320312 0.41768,-0.397123 -0.54838,-0.4890121 -0.39258,-0.9394531 0.25991,-0.517329 0.58961,-1.0419892 0.82227,-1.5800781 -0.11509,-0.4630991 -0.60525,0.1142031 -0.73438,0.3457031 -0.36947,0.541937 -1.14027,-0.1871692 -1.46484,0.3730469 -0.40527,0.352261 -0.59854,-0.2528808 -0.86523,-0.4335938 -0.36416,-0.113775 -0.69829,-0.2755291 -1.03516,-0.4550781 -0.42137,0.121471 -0.80353,0.5556573 -1.28906,0.4121093 -0.77405,-0.2025359 -1.42306,-0.7062376 -2.04297,-1.1816406 -0.47854,-0.540722 -0.98926,-1.1458429 -1.71484,-1.3417968 -0.42395,0.1165599 -0.78955,0.4333202 -1.25391,0.3164062 -0.36669,-0.08922 -0.73493,0.027923 -1.0957,-0.029297 -0.10461,-0.348059 -0.74712,-0.3701884 -0.49805,-0.7871094 0.37575,-0.322084 -0.18349,-0.81479935 -0.51758,-0.4902343 -0.14825,0.393933 -0.47675,0.3882612 -0.85742,0.4257812 -0.5751,0.2959049 -1.09818,-0.3885195 -1.65039,-0.2421875 -0.23479,0.430441 -0.6536,0.287324 -0.95508,0.015625 -0.2994,-0.142535 -0.63794,-0.46184025 -0.96094,-0.26953124 -0.35661,-0.08501 -0.73085,0.033988 -1.09375,0.14062504 -0.19676,0.282235 0.39593,0.501222 0.50196,0.796875 0.37743,0.443656 0.97051,0.6323451 1.39062,0.9863281 0.20785,0.389579 0.38815,0.9034107 0.0703,1.2773438 -0.37566,0.5803679 -0.8301,1.1292819 -1.48242,1.40625 -0.49905,0.2471459 -0.7197,0.8870243 -1.32812,0.9277343 -0.43575,0.19641 -0.96515,0.3524843 -1.39063,0.035156 -0.73652,-0.247601 -1.54286,0.018298 -2.16992,0.4375 -0.6152,0.142636 -1.19242,0.450602 -1.83203,0.484375 -0.62007,0.195093 -1.31593,0.1794862 -1.94141,0.019531 -0.2956,-0.168814 -0.68461,-0.2880905 -0.89844,-0.5234375 -0.0197,-0.290083 0.13178,-0.8247985 -0.32226,-0.8359375 -0.44533,0.064 -0.85667,-0.2998702 -0.80274,-0.7539062 -0.30481,-0.03393 -0.73473,0.04833 -1.08593,-0.09375 -0.31732,0.04152 -0.62033,0.5638856 -0.96485,0.2128906 -0.2596,-0.44153 -0.59196,-0.1315589 -0.94336,-0.044922 -0.40067,-0.173928 -0.79944,0.1726045 -1.1875,-0.085937 -0.4155,-0.279247 -0.96649,0.055999 -1.35156,-0.3203125 -0.42913,0.07104 -0.64576,-0.2674119 -0.93554,-0.4199219 -0.38563,-0.0056 -0.84985,0.1074956 -1.06641,-0.3203124 -0.12218,-0.3076021 -0.46052,-0.6931491 -0.0898,-0.96875 0.15337,-0.57252 -0.67856,-0.5166474 -0.91796,-0.8808594 -0.27914,-0.286943 0.26837,-0.7222996 -0.39063,-0.6816406 -0.46827,-0.234993 -0.803,-0.7195504 -1.3457,-0.83398444 -0.20494,-0.13418001 -0.42552,-0.18228576 -0.65039,-0.19140625 z m 25.41797,0.25390629 c -0.0121,-2.297e-4 -0.0215,0.012254 -0.0215,0.046875 0.11575,0.064523 0.0577,-0.046186 0.0215,-0.046875 z m 1.98242,0.00391 c -0.0193,-0.00196 -0.0432,0.00221 -0.0723,0.017578 0.11612,0.3570971 0.20709,-0.00387 0.0723,-0.017578 z m -34.07617,3.1757815 c -0.0107,0.00375 -0.0186,0.021848 -0.0137,0.066406 0.11112,0.044242 0.0456,-0.077644 0.0137,-0.066406 z m 11.11914,0.265625 c -0.0113,-0.00263 -0.0304,0.00451 -0.0547,0.033203 0.0652,0.076939 0.0887,-0.025302 0.0547,-0.033203 z m 49.46875,0.050781 c -0.11464,0.00214 -0.21294,0.046032 -0.19532,0.1640625 0.11641,0.235297 0.47292,0.1526846 0.49024,-0.083984 -0.0483,-0.0438 -0.18029,-0.082218 -0.29492,-0.080078 z m -1.7168,0.052734 c -0.0237,-0.018182 -0.0503,0.00675 -0.0684,0.1152344 4e-4,0.04405 0,0.088758 0,0.1328125 0.19542,0.2508292 0.13958,-0.1935022 0.0684,-0.2480469 z m -44.14844,0.3398437 c -0.0122,-0.00279 -0.0262,0.00834 -0.0391,0.046875 0.0937,0.096116 0.0755,-0.038513 0.0391,-0.046875 z m 1.47461,0.060547 c -0.008,3.712e-4 -0.0165,0.012297 -0.0195,0.042969 0.0739,0.051645 0.0444,-0.044082 0.0195,-0.042969 z m -2.36914,0.1269531 c -0.016,-8.283e-4 -0.0396,0.012974 -0.0723,0.052734 0.0944,0.079521 0.12015,-0.050249 0.0723,-0.052734 z m 4.13477,0.015625 c -0.005,0.00508 -0.007,0.024734 0,0.066406 0.0571,0.026205 0.014,-0.081658 0,-0.066406 z m -0.42578,0.041016 c -0.009,0.00218 -0.0169,0.016312 -0.0156,0.050781 0.0905,0.04113 0.0432,-0.057317 0.0156,-0.050781 z m 0.23437,0.00195 c -0.011,-0.00283 -0.0279,0.00118 -0.0527,0.021484 0.0609,0.063682 0.0857,-0.013005 0.0527,-0.021484 z m 0.31445,0 c -0.0147,-0.00575 -0.0254,0.00634 -0.0254,0.050781 0.14165,0.1351935 0.0696,-0.033533 0.0254,-0.050781 z m -1.63281,0.00195 c -0.0111,-0.00295 -0.0306,0.00255 -0.0566,0.021484 0.0601,0.062392 0.0901,-0.012639 0.0566,-0.021484 z m 2.66211,0.6152344 c -0.0161,0.00405 -0.0286,0.030116 -0.0273,0.09375 0.15654,0.075648 0.0756,-0.1059043 0.0273,-0.09375 z m -0.51367,0.078125 c -0.0155,-0.00132 -0.0333,0.00861 -0.0527,0.042969 0.11355,0.074467 0.0992,-0.039022 0.0527,-0.042969 z m 0.38086,0.109375 c -0.008,0.0013 -0.0163,0.013339 -0.0176,0.044922 0.0789,0.044355 0.0429,-0.048826 0.0176,-0.044922 z m 43.96094,0.2089844 c -0.0134,-0.00586 -0.0253,0.00405 -0.0312,0.044922 0.11825,0.1298384 0.0716,-0.027339 0.0312,-0.044922 z m -43.7754,0.1933593 c -0.0139,7.526e-4 -0.0263,0.014661 -0.0312,0.054688 0.12494,0.064823 0.0731,-0.056945 0.0312,-0.054688 z m -0.0586,0.2753907 c -0.0134,-0.00462 -0.0307,0.00808 -0.0488,0.054687 0.0959,0.1282432 0.089,-0.040829 0.0488,-0.054687 z M 432.5957,8.14642 c -0.009,0.00234 -0.0149,0.015005 -0.0137,0.048828 0.0929,0.038392 0.042,-0.055856 0.0137,-0.048828 z m -31.37305,1.3554687 c -0.0125,0.00486 -0.0218,0.025049 -0.0195,0.072266 0.12365,0.038317 0.0569,-0.086851 0.0195,-0.072266 z m -58,0.1425781 c -0.0115,-0.00772 -0.0298,-0.00821 -0.0527,0.00977 0.0687,0.106446 0.0871,0.013388 0.0527,-0.00977 z m -0.043,0.0625 c -0.0157,-0.00865 -0.0364,-0.00989 -0.0605,0.00586 0.10724,0.1113825 0.10764,0.02009 0.0605,-0.00586 z m 58.84766,0.3437502 c -0.0103,0.0052 -0.0202,0.0259 -0.0215,0.07227 0.097,0.03379 0.0525,-0.08779 0.0215,-0.07227 z m 0.0957,0.111328 c -0.0134,0.0035 -0.022,0.02211 -0.0195,0.07227 0.13292,0.05663 0.0597,-0.08278 0.0195,-0.07227 z m 18.44922,0.06055 c -0.0151,-0.0085 -0.0386,-0.0091 -0.0723,0.01172 0.0848,0.119129 0.11773,0.0138 0.0723,-0.01172 z m -0.16211,0.02148 c -0.0276,-0.0015 -0.0574,0.0099 -0.082,0.04687 0.22033,0.08085 0.16474,-0.04239 0.082,-0.04687 z m -0.0547,0.08398 c -0.0109,0.0018 -0.0215,0.0134 -0.0273,0.04492 0.0945,0.03934 0.0602,-0.05036 0.0273,-0.04492 z m 0.0859,0 c -0.009,0.0023 -0.0156,0.01422 -0.0156,0.04297 0.0833,0.02962 0.0417,-0.04988 0.0156,-0.04297 z m -18.21484,0.02539 c -0.0121,-5.77e-4 -0.0217,0.01021 -0.0234,0.04492 0.1129,0.06802 0.0597,-0.04319 0.0234,-0.04492 z m -49.24219,0.119141 c -0.022,0.0064 -0.0514,0.0399 -0.084,0.121093 0.15233,0.08442 0.14993,-0.140383 0.084,-0.121093 z m 66.17578,0.273437 c -0.0241,-0.0047 -0.0531,0.01174 -0.0781,0.06836 0.18585,0.146927 0.1503,-0.05429 0.0781,-0.06836 z m -0.49609,0.162109 c -0.0123,-5.96e-4 -0.0236,0.01057 -0.0254,0.04492 0.11503,0.06756 0.0623,-0.04313 0.0254,-0.04492 z m -0.13477,0.05469 c -0.0162,-0.0016 -0.0317,0.01695 -0.0371,0.07226 0.14541,0.115332 0.0856,-0.06734 0.0371,-0.07226 z m -0.40625,0.152343 c -0.0236,-0.0016 -0.0423,0.01961 -0.0449,0.08594 0.22193,0.134623 0.11577,-0.08118 0.0449,-0.08594 z m 0.33789,0.0078 c -0.0135,0.0022 -0.0224,0.02185 -0.0176,0.07617 0.13797,0.07637 0.058,-0.08286 0.0176,-0.07617 z m -80.63858,0.519549 c -0.014,3.86e-4 -0.0283,0.01562 -0.0352,0.05469 0.12248,0.06661 0.0773,-0.05585 0.0352,-0.05469 z m -0.006,0.08789 c -0.0157,-0.0072 -0.04,-0.0035 -0.0762,0.02344 0.0861,0.117459 0.12341,-0.0019 0.0762,-0.02344 z m 79.75781,0.386719 c -0.0121,-0.0066 -0.0313,-0.002 -0.0586,0.02344 0.067,0.109218 0.0949,-0.0036 0.0586,-0.02344 z m -0.15625,0.365234 c -0.0153,0.0026 -0.0266,0.02097 -0.0254,0.06836 0.14902,0.06046 0.0713,-0.07613 0.0254,-0.06836 z m -2.00586,1.683594 c -0.0117,-0.0075 -0.0279,-0.0057 -0.0488,0.01367 0.0744,0.106787 0.0839,0.0088 0.0488,-0.01367 z m -0.002,0.07226 c -0.0303,-0.0067 -0.0716,0.0052 -0.12109,0.05078 -0.0516,0.03038 -0.0112,0.09441 -0.0234,0.138672 0.22219,0.02203 0.2354,-0.169453 0.14453,-0.189453 z m -0.9082,0.470703 c -0.0169,1.95e-4 -0.0339,0.01225 -0.0449,0.04883 0.14191,0.06403 0.0955,-0.04941 0.0449,-0.04883 z m -91.06641,0.71875 c -0.0159,-0.0046 -0.0352,0.0052 -0.0508,0.04687 0.12452,0.11875 0.0984,-0.03318 0.0508,-0.04687 z m -2.57031,0.691407 c -0.012,-8.4e-4 -0.0217,0.01039 -0.0234,0.04492 0.11225,0.07022 0.0595,-0.0424 0.0234,-0.04492 z m 5.8418,0.955078 c -0.0218,0.0034 -0.0467,0.02595 -0.0703,0.08203 0.16691,0.06793 0.13575,-0.09235 0.0703,-0.08203 z m -18.00391,0.03711 c -0.0137,0.0026 -0.0291,0.02285 -0.041,0.07422 0.11032,0.0676 0.0822,-0.08199 0.041,-0.07422 z"
     id="rect4"
     inkscape:connector-curvature="0" />
  <path
     d="m 302.95508,18.322208 c -0.0109,0.0021 -0.0221,0.01326 -0.0273,0.04492 0.0953,0.03721 0.06,-0.0511 0.0273,-0.04492 z m -0.29297,0.107422 c -0.0127,-8.3e-4 -0.0306,0.0115 -0.0527,0.04883 0.0817,0.07515 0.0907,-0.04634 0.0527,-0.04883 z m -0.22265,0.105468 c -0.0162,-9.29e-4 -0.0416,0.01258 -0.0742,0.05273 0.0965,0.08119 0.12274,-0.04995 0.0742,-0.05273 z m -3.16016,0.08008 c -0.0218,0.0038 -0.0466,0.02647 -0.0684,0.08203 0.16976,0.06327 0.13366,-0.09351 0.0684,-0.08203 z m 2.99219,0.03711 c -0.0109,0.0017 -0.022,0.01487 -0.0273,0.04687 0.0954,0.04094 0.0601,-0.05208 0.0273,-0.04687 z m -1.97656,0.04883 c -0.0138,6.42e-4 -0.0264,0.0135 -0.0332,0.05273 0.12042,0.06445 0.0747,-0.05466 0.0332,-0.05273 z m 2.90234,0.0332 c -0.54193,0.0233 -1.00625,0.447632 -1.57617,0.316406 -0.50847,-0.09803 -0.94419,0.334967 -1.44531,0.144531 -0.40826,-0.04861 -0.88775,-0.348771 -1.19727,0.07813 -0.43976,0.516771 -1.15272,0.09271 -1.72266,0.146484 -0.50877,-0.0096 -1.01114,-0.317865 -1.49804,-0.111328 -0.53925,-0.138991 -1.05775,-0.732506 -1.65625,-0.390625 -0.54052,0.169523 -0.85717,0.720491 -1.44336,0.808593 -0.67065,0.215752 -1.35357,0.478366 -2.07227,0.359376 -0.60204,-0.03798 -1.26504,-0.421861 -1.80273,0.03906 -0.56163,0.617027 -1.45103,0.686388 -2.22852,0.554688 -0.39085,0.03544 -0.73913,0.259494 -1.14258,0.197265 -0.63698,0.173776 -1.19634,0.561986 -1.84375,0.691406 -0.52578,0.318033 -1.24541,0.239618 -1.62304,0.794922 -0.33961,0.424517 -0.27595,1.180079 -0.91602,1.31836 -0.49844,0.290336 -0.91096,0.744291 -1.50586,0.863281 -0.32852,0.293323 -0.75709,0.215894 -1.14844,0.248047 -0.46117,0.229018 -0.92916,0.456422 -1.27343,0.855469 -0.57591,0.291805 -1.25573,0.133918 -1.84375,0.408203 -0.57622,-0.0238 -1.22335,-0.17626 -1.76367,0.105468 -0.26979,0.422288 -0.91041,0.395719 -1.13477,0.873047 -0.4072,0.401276 -1.04269,0.394743 -1.50781,0.71875 -0.51535,0.143345 -0.97069,0.437917 -1.44336,0.669922 -0.59662,0.230537 -0.97983,0.771247 -1.4961,1.113281 -0.42446,0.121268 -0.87306,0.126526 -1.29687,0.261719 -0.36426,-0.03494 -0.72075,-0.01875 -1.06445,0.121094 -0.37049,0.202435 -1.11392,0.120109 -1.08399,0.708984 -0.0625,0.542697 -0.44985,0.931202 -0.82226,1.300782 -0.32654,0.21479 -0.52359,0.638764 -0.98047,0.621093 -0.74376,0.318083 -1.73789,0.271614 -2.22266,1.019531 -0.54336,0.690954 -1.28622,1.195536 -2.04492,1.619141 -0.36133,0.412364 -0.33991,1.028035 -0.42969,1.537109 -0.19423,0.317021 -0.48347,0.558715 -0.46094,0.96875 -0.29514,0.662295 -0.54943,1.360854 -1.08007,1.871094 -0.2791,0.519759 -0.23768,1.20358 -0.71875,1.615235 -0.64543,0.960124 -1.77545,1.405878 -2.68555,2.076171 -0.56493,0.229828 -1.0925,0.548173 -1.66016,0.763672 -0.64118,0.01165 -1.2626,-0.255543 -1.86914,-0.435546 -0.61734,0.08339 -1.10592,-0.368214 -1.71484,-0.347657 -0.4344,-0.01924 -0.65995,-0.510269 -1.12696,-0.455078 -0.50806,-0.06745 -1.14027,-0.494169 -0.99804,-1.068359 0.3873,-0.306489 0.0789,-0.738299 -0.32617,-0.800782 -0.40188,-0.119242 -0.53416,-0.550567 -0.82813,-0.771484 -0.55152,-0.153725 -1.24226,-0.204278 -1.5918,0.34961 -0.42769,0.379857 -1.11653,0.445906 -1.65234,0.304687 -0.22132,-0.172257 -0.98585,-0.274913 -0.73242,0.189453 0.2634,0.655712 -0.26927,1.282508 -0.49414,1.876953 -0.38775,0.621129 -0.58306,1.4795 -1.32227,1.783203 -0.32765,-0.05382 -0.74076,-0.452581 -0.99023,-0.0098 -0.31337,0.386135 -0.529,0.862014 -0.96875,1.142578 -0.16421,0.35611 -0.49266,0.44914 -0.85156,0.474609 -0.41965,0.284412 -0.91188,-0.145974 -1.38086,-0.06445 -0.40613,0.03291 -0.8238,-0.247808 -0.64258,-0.695312 -0.22998,-0.335299 -0.64649,-0.236974 -0.98438,-0.136719 -0.36492,-0.02582 -0.6697,-0.277639 -1.05664,-0.246094 -0.44963,-0.04456 -0.43421,-0.545596 -0.74414,-0.726562 -0.37692,0.02734 -0.81408,0.04321 -0.99414,0.4375 -0.34522,0.3314 -0.24961,1.017085 -0.81641,1.144531 -0.4196,0.20517 -0.98814,0.787967 -1.39843,0.265625 -0.40466,-0.477429 -1.062,-0.119874 -1.38672,0.267578 -0.33773,0.412263 -0.82365,0.613694 -1.29688,0.818359 -0.37115,0.21028 -0.92583,-0.06305 -1.19921,0.384766 -0.4948,0.3871 -0.51681,1.284089 -1.25586,1.349609 -0.53505,0.1481 -0.92659,0.598804 -1.34766,0.933594 -0.26796,0.30968 -0.46502,0.76985 -0.83398,0.9375 -0.32442,-0.0806 -0.72855,-0.280272 -0.96485,0.111328 -0.31789,0.35768 -0.0483,0.919933 -0.39844,1.289063 -0.40294,0.55753 -0.63827,1.192477 -0.85742,1.835937 -0.32709,0.58994 -0.35526,1.299735 -0.62109,1.921875 -0.21281,0.87461 -0.7927,1.629423 -1.53125,2.126953 -0.79997,0.009 -1.01337,0.97476 -1.65821,1.28125 -0.6675,0.35682 -1.47165,0.546179 -2.20898,0.261719 -0.51181,-0.0177 -1.06155,-0.04097 -1.45508,0.349609 -0.50386,0.365781 -1.10182,0.576214 -1.59961,0.970704 -0.39236,0.13064 -0.65374,0.450958 -0.89648,0.767578 -0.42568,0.16152 -0.94749,0.370442 -1.02344,0.882812 -0.36553,0.11332 -0.70082,0.282168 -0.79687,0.710938 -0.24563,0.65374 -1.06693,0.382278 -1.56446,0.673828 -1.02246,0.15975 -1.22187,1.545122 -2.2539,1.664062 -0.27261,0.20223 -0.64143,0.465493 -0.93946,0.126954 -0.3837,-0.321431 -0.56059,0.176496 -0.77148,0.404296 -0.64639,0.38903 -1.47104,0.275413 -2.08984,0.726563 -0.54776,0.10937 -1.13238,0.08503 -1.60743,0.423828 -0.4867,0.18836 -1.01001,0.06295 -1.43164,-0.21875 -0.29682,-0.0187 -0.58004,0.444533 -0.97656,0.314453 -0.49707,-0.15773 -1.001,0.118783 -1.49609,-0.08594 -0.51485,-0.10324 -0.90274,-0.54167 -1.45703,-0.53711 -0.40508,-0.19631 -0.86026,-0.33643 -1.26563,-0.05664 -0.28162,0.48892 -0.6242,-0.277525 -0.81641,0.109375 -0.0496,0.0481 -0.11153,0.08132 -0.16601,0.123046 l -0.0664,0.04688 c 0.0491,0.903109 -0.33433,1.394531 0.75,1.738281 0.18588,0.6823 0.71996,0.720443 1.1543,0.996093 0.20926,0.0624 0.39627,0.134987 0.51172,0.128907 0.29783,0.0965 0.21113,0.26218 0.26758,0.46289 0.39869,0.30487 0.71422,0.748552 1.16992,1.082032 0.51688,0.2114 0.92282,0.963329 1.52734,0.818359 0.48952,-0.27929 1.05337,0.01064 1.58594,-0.296875 0.22158,0.4157 0.012,1.093796 0.0996,1.597656 -0.0359,0.37343 0.23692,0.288801 0.42969,0.431641 0.4316,0.32861 0.93363,0.515145 1.44336,0.796875 0.68321,0.14233 0.53087,0.908216 0.63867,1.410156 0.70878,-0.0669 1.13828,0.443439 1.6914,0.724609 0.25667,0.34543 1.02561,-0.280828 0.54297,0.207032 0.4117,0.39165 1.28929,0.603267 1.81446,0.992187 0.65344,0.18187 -0.0869,0.287163 -0.32422,0.539063 -0.63885,0.23013 -0.10924,0.989991 -0.67188,1.300781 -0.66356,0.74994 -1.1122,1.537731 -1.76953,2.300781 -0.5869,0.47946 0.13471,0.01042 0.25391,0.308594 0.563,0.0715 0.68953,0.699752 1.08007,1.044922 0.2946,0.37895 0.21549,0.727924 0.60157,1.052734 0.55171,0.0213 0.20325,0.75773 0.63086,0.71875 0.12896,0.20046 0.20552,0.540558 0.54883,0.673828 0.51136,0.0365 0.99314,0.393035 1.48632,0.521485 -0.83911,0.93319 -1.63156,1.944533 -2.45117,2.908203 -0.50847,0.32122 -0.26973,0.666467 -0.006,1.054687 0.82421,0.51049 1.39209,1.408476 1.89453,2.134766 -0.20907,0.63819 -0.0214,1.297609 -0.27929,1.949219 0.39484,1.65832 1.3428,3.155619 1.9375,4.755859 -0.42214,2.140804 -0.73943,4.311844 -1.22461,6.445314 -0.63277,1.55887 0.3178,3.06094 0.56054,4.60351 -0.75405,0.65075 -1.94699,1.01573 -1.91796,2.17774 0.2392,0.19556 1.38421,1.28493 2.0625,0.80078 1.0939,-0.0289 0.42972,1.87051 1.52539,2.05664 1.02701,0.16598 0.0348,1.37996 0.53711,1.66406 -0.66407,0.52822 0.51615,1.15658 -0.0645,1.69922 -0.29636,0.61931 -0.90139,1.05018 -0.70508,1.66797 0.0917,0.83905 -0.65884,1.25886 -0.82031,1.98242 -0.56164,0.76696 -0.39966,1.6845 -0.36523,2.52148 0.19519,0.71151 -0.34918,1.30722 -0.13672,1.96875 0.53601,0.59769 0.77632,1.53794 1.54687,1.87891 0.44994,0.60169 0.95346,1.33956 1.11133,2.13867 0.60083,0.63242 1.19119,1.37525 1.82422,1.91992 0.81019,0.11489 1.41242,0.68386 1.49414,1.54297 -0.20623,0.58963 -0.38752,1.17225 -0.39258,1.82422 -0.16578,1.04028 -1.18166,0.64952 -1.87109,1.12695 1.10509,1.88085 2.69563,4.11739 3.95703,6.1504 0.49393,1.35624 1.97676,1.55249 3.11719,2.16015 2.39636,1.20201 4.36976,3.13136 6.59179,4.63281 0.68837,0.62244 1.6947,1.06552 2.2461,1.74219 -0.31135,0.61115 -1.34748,0.85208 -1.63281,1.58789 -0.43231,0.67167 -1.27336,1.03973 -1.83985,1.44531 -0.39216,0.57612 -1.3765,-0.12882 -1.9668,0.42188 -0.98351,0.16527 -0.61436,1.20252 -1.06835,1.86133 0.0395,0.56958 -1.27837,0.69024 -0.70899,1.20508 0.57439,0.67334 -0.13896,1.71708 -0.11719,2.52343 0.3549,0.79921 0.11306,1.38778 -0.66797,1.70703 -0.56204,0.2756 -1.33204,1.22221 -0.17773,0.86524 0.74721,0.19398 1.33078,-0.63816 2.08594,-0.28711 1.00706,-0.1277 0.62537,1.25148 1.35937,1.37695 0.36502,0.61201 -0.31567,0.75311 -0.87695,0.95899 -0.39971,0.65333 -1.20046,0.73811 -1.92969,0.82226 -0.76828,-0.73698 -1.9858,0.22766 -2.83594,-0.45312 -0.92894,0.11448 -1.92285,0.19565 -2.86328,-0.0977 -0.86569,0.14522 -1.51252,-0.60865 -2.34961,-0.20312 -1.22858,0.47145 -2.41875,-0.009 -3.60937,-0.34961 -0.73415,-0.24365 -1.55403,0.005 -2.1875,-0.37696 -0.83369,0.112 -1.46521,-0.5162 -2.23242,-0.55468 -0.90716,-0.60108 -2.13132,0.0579 -2.86719,-0.80469 -0.73202,-0.16076 -0.69594,0.6392 -1.39844,0.14258 -0.84032,0.24481 -1.09543,-0.76549 -1.93945,-0.79688 -1.95225,0.47859 -4.02088,2.0147 -6.02148,0.91406 -0.76093,-0.2042 -1.60204,-0.69729 -2.25,-0.0996 -1.55316,0.0761 -3.12737,-0.0643 -4.69141,-0.0957 -1.02995,0.47839 -2.34347,0.14366 -3.26172,0.89649 -0.8222,1.15932 -2.17653,0.35558 -3.31641,0.55468 -1.87792,0.41003 -3.76576,-0.11744 -5.65234,0.17579 -0.90999,-0.0451 -1.2391,-0.5585 -1.64453,0.43945 0.10456,0.89729 -0.77557,2.07151 0.10937,2.80859 -0.0147,0.81425 1.02937,1.34979 0.98633,2.05664 0.0668,0.92605 1.00608,1.67157 1.17969,2.57813 -0.13999,0.95354 0.22711,1.46406 0.58008,2.21289 -0.40786,0.83673 -1.89697,0.59005 -2.75,0.92383 -0.66478,0.28578 -1.92601,0.10514 -2.19336,0.65234 -6.4996,1.35583 -13.01896,2.67153 -19.48828,4.14063 -0.006,2.56037 -0.0141,5.12127 -0.006,7.68164 1.07329,0.44274 -0.21332,0.57324 -0.25586,0.80859 -0.86579,0.21843 -1.04308,1.05066 -1.81641,1.10351 -0.31216,-1.25561 -0.93697,0.34978 -0.74219,0.83399 -0.60853,0.61393 -0.84273,1.05777 -0.18945,1.23437 -0.3771,0.0718 -0.58642,1.16729 -0.68945,1.48633 0.55763,0.49894 0.59807,0.93984 0.8164,1.79297 0.0344,0.63354 -0.66231,1.36395 -0.42382,2.18164 -0.16365,1.16033 0.5236,-1.24373 1.19531,-0.0566 0.61668,-0.17798 -0.15334,-1.46157 0.84961,-1.0332 0.22263,1.18068 -0.38182,-1.39699 0.21875,-0.6875 -0.19884,-0.0664 1.04338,0.13328 0.83203,1.39453 0,0.73652 -0.57611,1.7405 0.68164,1.51953 0.13864,0.0632 -0.88657,-0.76661 -0.0781,-0.53516 0.63945,0.50751 0.24693,-1.04489 -0.01,-1.20312 0.6266,-0.25383 0.1208,-1.8883 0.44922,-0.36524 -0.24122,0.90899 0.0723,1.39925 0.61914,0.98633 -0.0823,0.67743 0.42255,1.15165 0.6582,1.63086 0.12456,0.79728 1.08201,0.85225 0.92383,0.18555 0.7104,-0.56153 -0.10692,1.36168 0.56641,0.73047 0.20105,0.7551 6e-4,1.40124 0.11328,2.09375 -0.12187,0.20918 -0.50714,1.02744 -0.54688,1.42969 -0.92134,-0.18573 -0.53774,0.71923 -1.20312,1.29296 0.28903,-0.25256 -0.70072,1.27053 -1.07227,0.69922 -0.40116,0.57698 -0.59456,1.44351 -0.66992,2.24414 -0.4271,0.91359 0.0712,1.18707 0.84766,1.26368 0.55025,0.96661 0.0846,1.18823 -0.29493,1.97265 -1.69082,1.12241 -3.83428,1.58708 -5.70117,2.45703 -2.37085,0.65004 -4.67753,1.5033 -7.13476,1.42578 -2.50304,-0.12213 -4.70293,1.21234 -7.03321,1.93165 -2.86694,2.53398 -5.56383,5.35569 -8.37109,7.99414 -2.44118,1.41942 -5.11214,2.55267 -7.64648,3.85351 -1.9803,0.72129 -3.5515,2.09431 -5.125,3.44922 -1.03162,0.67789 -1.81472,1.9288 -3.02149,2.22461 -1.02326,0.94306 -2.45773,1.52882 -3.24609,2.67578 -0.82327,0.43368 -1.40996,1.14423 -1.87696,1.96875 -0.89211,0.73749 -0.0282,1.72323 -0.3496,2.57617 -2.04617,3.01875 -4.27892,5.94028 -6.30079,8.89453 -0.74321,-0.0959 0.10875,1.07729 -0.75,1.2461 -0.29307,-0.87779 -1.42817,-0.0162 -1.88281,-0.82227 -0.72042,0.039 -1.06122,-0.50087 -1.43945,-0.98828 -0.52903,-0.68902 -0.86636,0.76569 -1.63281,0.4668 -0.9422,0.16491 -0.28702,-1.19193 0.0449,-1.54297 0.84002,-0.73324 -0.34494,-1.31231 -1,-1.42188 -0.92868,-0.42609 -1.8549,-0.0209 -2.83594,-0.0371 -0.47064,0.63647 -1.25891,0.29038 -1.93164,0.42188 -1.01876,0.12912 -2.03978,0.70935 -2.97656,0.68555 -0.58189,0.37449 -1.28506,0.51427 -1.95703,0.21289 -0.81101,0.0899 -1.59834,-0.68571 -2.38282,-0.33203 -0.77156,0.0451 -1.2126,-0.005 -1.82031,0.36328 -1.04459,0.005 -2.05095,-0.15719 -3.10156,0.01 -0.76948,-0.59521 -1.29458,0.91193 -1.52735,0.23242 -1.05734,-0.40457 -2.19824,-0.0906 -3.06054,0.59571 -0.53743,0.59561 -0.95682,0.74226 -1.7461,0.63086 -0.55981,0.2034 -1.60587,-0.59527 -1.8164,0.0488 -1.10002,0.1631 -2.57698,-0.11557 -3.24024,1.02735 -0.43247,1.04772 -1.57101,1.01257 -2.5,0.80664 -0.77075,0.036 -1.08465,-0.89369 -1.88867,-0.58594 -0.69733,-0.49839 -1.56396,-0.57574 -2.39258,-0.36328 -0.56776,-0.60807 -1.26118,0.0125 -1.85547,-0.0703 -1.06317,0.0339 -1.84556,-1.15796 -2.93359,-0.79102 -0.7305,-0.25853 -1.27661,0.33552 -1.91211,0.59766 -1.9637,0.38866 -2.88284,2.33136 -4.34961,3.45508 -0.71662,0.0642 -1.21298,0.58449 -1.8418,0.54297 -1.4649,0.26963 -3.01161,0.92478 -4.49023,0.33398 -0.68767,-0.37398 -2.18506,-0.1746 -1.97461,0.82617 -0.0892,0.16341 -0.63568,1.64702 -1.13476,1.46094 -1.63062,0.627 -3.45315,1.12715 -4.69141,2.49219 -0.54953,0.58685 -1.4045,0.97555 -2.01758,1.25976 -0.80063,0.39961 -1.7722,1.05463 -1.99023,1.94336 -1.29927,0.99988 -2.88618,1.60627 -4.13477,2.65039 -0.75672,0.36867 -1.36721,1.42484 -2.28125,1.12696 -1.04474,0.67642 -1.85961,1.62165 -2.90039,2.28906 -1.99828,1.3299 -3.46159,3.26892 -5.22851,4.83984 -2.11403,0.87927 -4.11522,2.05842 -6.25,2.8711 0.007,9.95203 0.012,19.90638 0.0312,29.85351 -0.0541,1.52981 0.12217,3.29564 -0.0996,4.67578 -0.12122,4.10227 0.0165,8.20752 -0.11329,12.31055 6.5559,4.12299 13.02725,8.40443 19.5625,12.57031 7.59177,4.80133 15.17842,9.61468 22.63672,14.62305 2.2873,1.40641 4.42601,3.13571 6.74414,4.43164 3.31724,2.09165 6.58847,4.43974 9.83594,6.65625 3.17005,2.19372 6.32968,4.42991 9.51953,6.55664 5.67568,3.99352 11.44008,7.79969 17.10938,11.8125 8.5518,5.9055 16.95049,11.97972 25.40234,18.02539 -0.53976,-0.41206 1.84231,1.24159 1.9336,1.48828 1.1501,0.94827 2.50038,1.63074 3.67382,2.55664 7.27289,5.33349 14.65993,10.54094 22.01368,15.77539 4.47453,2.9542 8.78739,6.21192 13.24218,9.15625 3.69386,2.8871 7.69177,5.47806 11.49024,8.24805 4.05509,2.78102 7.97828,5.7424 12,8.54297 8.38172,6.00521 16.74754,11.99545 25.09179,18.05078 1.64151,1.25269 3.55522,2.5716 5.07227,3.71289 5.02017,3.75756 10.1088,7.39927 15.10547,11.19531 7.7332,5.73736 15.55316,11.4814 23.3164,17.17774 3.27273,2.41424 6.48381,4.77985 9.70313,7.24218 1.17593,0.44001 0.78434,1.8663 1.10156,2.87696 11.07404,7.66346 22.11253,15.38289 33.18946,23.04687 1.46438,0.59495 1.52139,2.28118 1.69921,3.63867 0.3709,2.86741 -0.47278,5.66955 -0.91015,8.45899 -0.13347,1.36965 1.31155,1.88801 2.4375,1.60547 0.93416,-1.03142 2.86734,-0.68497 3,0.81836 0.0238,1.47953 1.77702,1.28263 2.78125,1.55859 1.94136,0.78888 3.98319,1.38084 5.75781,2.53125 0.36244,0.47613 0.56231,1.01293 0.6875,1.57617 l 0,-530.017572 z m -99.57812,93.994143 c -0.059,-0.0483 -0.0784,-0.0571 -0.004,0.043 -8.1e-4,-0.0156 0.004,-0.0277 0.004,-0.043 z m 95.84374,-93.968752 c -0.0113,-0.003 -0.03,9.11e-4 -0.0566,0.01953 0.0603,0.06206 0.0905,-0.01061 0.0566,-0.01953 z m -13.7539,1.740234 c -0.0144,5.41e-4 -0.0348,0.01392 -0.0586,0.04883 0.0952,0.05765 0.10171,-0.05045 0.0586,-0.04883 z m -0.19727,0.07813 c -0.014,7.48e-4 -0.0281,0.01337 -0.0352,0.05273 0.12129,0.06368 0.0771,-0.05498 0.0352,-0.05273 z m 0.082,0.0098 c -0.009,9.76e-4 -0.017,0.01236 -0.0195,0.04297 0.0788,0.04572 0.0456,-0.0459 0.0195,-0.04297 z m -0.25586,0.04883 c -0.0116,-0.0026 -0.0291,0.0025 -0.0547,0.02148 0.0655,0.05932 0.0895,-0.01361 0.0547,-0.02148 z m 0.0977,0.002 c -0.0112,-0.0027 -0.0293,0.0014 -0.0547,0.01953 0.0617,0.05875 0.0882,-0.01136 0.0547,-0.01953 z m -0.041,0.05273 c -0.01,0.0025 -0.0166,0.01662 -0.0137,0.05078 0.097,0.03721 0.0424,-0.05837 0.0137,-0.05078 z m -0.0977,0.01172 c -0.0106,0.0033 -0.017,0.02119 -0.0137,0.06641 0.10728,0.04997 0.0453,-0.07622 0.0137,-0.06641 z m -0.0801,0.01172 c -0.0142,9.1e-4 -0.0269,0.01513 -0.0312,0.05469 0.12858,0.06247 0.0739,-0.05742 0.0312,-0.05469 z m -0.084,0.02539 c -0.0132,-0.0046 -0.0286,0.0095 -0.0449,0.05664 0.0975,0.129193 0.0846,-0.04278 0.0449,-0.05664 z m -3.5586,1.634766 c -0.0132,-0.0054 -0.0325,0.0064 -0.0586,0.05078 0.0795,0.131548 0.0981,-0.03467 0.0586,-0.05078 z m -11.16797,5.316406 c -0.0126,0.0045 -0.0286,0.02739 -0.0449,0.08008 0.0917,0.05176 0.0827,-0.09354 0.0449,-0.08008 z m -7.05664,4.078125 c -0.0135,0.004 -0.03,0.02718 -0.0449,0.08594 0.10299,0.06703 0.0855,-0.09804 0.0449,-0.08594 z m -0.0508,0.152344 c -0.009,0.0011 -0.0175,0.01321 -0.0195,0.04492 0.0797,0.04633 0.0456,-0.04828 0.0195,-0.04492 z m -1.01367,0.529297 c -0.009,0.006 -0.014,0.02479 -0.008,0.06641 0.0936,0.01747 0.0336,-0.08436 0.008,-0.06641 z m -0.79883,0.177734 c -0.007,0.0068 -0.01,0.02374 -0.004,0.05469 0.0759,-0.0095 0.0242,-0.07506 0.004,-0.05469 z m -0.082,0.01953 c -0.0111,-0.0028 -0.0284,0.0027 -0.0547,0.02148 0.0593,0.06084 0.088,-0.01305 0.0547,-0.02148 z m -0.0391,0.05469 c -0.01,0.0017 -0.0169,0.0144 -0.0156,0.04883 0.0944,0.04531 0.0444,-0.05404 0.0156,-0.04883 z m -0.0703,0.0078 c -0.009,4.4e-4 -0.0162,0.01256 -0.0195,0.04297 0.0771,0.05051 0.0455,-0.04429 0.0195,-0.04297 z m -0.14649,0.08203 c -0.009,9.59e-4 -0.0173,0.01201 -0.0195,0.04297 0.0796,0.04652 0.0457,-0.04585 0.0195,-0.04297 z m -0.11328,0.02539 c -0.011,0.002 -0.0219,0.01519 -0.0273,0.04687 0.0961,0.03797 0.0604,-0.05283 0.0273,-0.04687 z m -0.12109,0.101563 c -0.0144,5.44e-4 -0.0257,0.01348 -0.0293,0.05273 0.13193,0.06543 0.0725,-0.05437 0.0293,-0.05273 z m -0.20703,0.121094 c -0.009,0.0011 -0.0161,0.01273 -0.0176,0.04297 0.0812,0.04409 0.0438,-0.0462 0.0176,-0.04297 z m -0.24415,0.128906 c -0.0125,0.0044 -0.0272,0.02663 -0.043,0.08008 0.0919,0.05427 0.0806,-0.09318 0.043,-0.08008 z m -0.83984,0.910156 c -0.008,9.59e-4 -0.0158,0.01184 -0.0176,0.04297 0.0775,0.04682 0.0428,-0.04585 0.0176,-0.04297 z m -0.46484,0.351563 c -0.007,-2.93e-4 -0.0127,0.0098 -0.01,0.03711 0.0762,0.05192 0.0319,-0.03623 0.01,-0.03711 z m -0.0488,0.05469 c -0.008,8.3e-5 -0.0118,0.0094 -0.01,0.03711 0.0765,0.0491 0.0325,-0.03736 0.01,-0.03711 z m -0.0996,0.07813 c -0.008,-1.05e-4 -0.019,0.01106 -0.0332,0.04297 0.0546,0.05845 0.0582,-0.04265 0.0332,-0.04297 z m -0.0664,0.07617 c -0.01,0.0024 -0.0181,0.01603 -0.0156,0.04883 0.0963,0.0357 0.0443,-0.05612 0.0156,-0.04883 z m -0.10742,0.115234 c -0.0111,0.0016 -0.0215,0.01367 -0.0273,0.04492 0.0961,0.04082 0.0607,-0.04975 0.0273,-0.04492 z m -0.0859,0.06836 c -0.009,0.0058 -0.0163,0.0225 -0.0176,0.05859 0.085,0.0091 0.0448,-0.07605 0.0176,-0.05859 z m -14.57031,5.046875 c -0.008,-1.76e-4 -0.014,0.0093 -0.0117,0.03711 0.0787,0.05172 0.035,-0.03658 0.0117,-0.03711 z m 0.47461,0.160156 c -0.008,8.04e-4 -0.0156,0.01212 -0.0176,0.04297 0.078,0.04781 0.0431,-0.04538 0.0176,-0.04297 z m -2.0332,0.351562 c -0.01,0.002 -0.0176,0.01421 -0.0176,0.04883 0.0945,0.04279 0.0471,-0.05493 0.0176,-0.04883 z m -0.0527,0.03516 c -0.008,-0.0047 -0.0197,0.0038 -0.0371,0.04102 0.0501,0.112484 0.0625,-0.02677 0.0371,-0.04102 z m -1.92968,0.03516 c -0.008,0.0062 -0.0118,0.02523 -0.004,0.06641 0.0956,0.01443 0.0294,-0.08506 0.004,-0.06641 z m 4.93554,0.152344 c -0.0118,-0.007 -0.0291,-0.0035 -0.0566,0.02148 0.064,0.112484 0.0921,-3.81e-4 0.0566,-0.02148 z m -5.17968,0.08594 c -0.0114,-0.0027 -0.0307,10e-4 -0.0566,0.01953 0.0627,0.05936 0.0908,-0.01138 0.0566,-0.01953 z m 5.62304,0.164063 c -0.0183,-0.0038 -0.0341,0.01337 -0.0371,0.07227 0.17052,0.142371 0.0921,-0.06091 0.0371,-0.07227 z m -5.85156,0.08594 c -0.0128,0.0017 -0.0253,0.01925 -0.0293,0.07031 0.11553,0.07538 0.0677,-0.07548 0.0293,-0.07031 z m 6.0312,0.03311 c -0.0219,-0.0032 -0.0467,0.02865 -0.0684,0.123047 l 0,0.02344 c 0.17188,0.178941 0.13417,-0.136829 0.0684,-0.146485 z m -14.99609,3.291016 c -0.0193,0.0019 -0.0367,0.01756 -0.041,0.05664 0.17773,0.05206 0.099,-0.06235 0.041,-0.05664 z m 0.23437,0.06445 c -0.0111,0.0016 -0.0235,0.01316 -0.0312,0.04492 0.0931,0.04143 0.0647,-0.04984 0.0312,-0.04492 z m -3.38672,0.0078 c -0.0325,-0.0061 -0.0677,0.0097 -0.0918,0.06641 0.26864,0.16075 0.1893,-0.04807 0.0918,-0.06641 z m -6.39648,1.310547 c -0.026,0.0015 -0.0491,0.0226 -0.0547,0.08008 0.23925,0.08947 0.13259,-0.08445 0.0547,-0.08008 z m -0.13672,0.0059 c -0.0167,0.0018 -0.0309,0.02231 -0.0371,0.07422 0.14947,0.07572 0.0873,-0.07976 0.0371,-0.07422 z m 0.10352,0.105469 c -0.0166,1.89e-4 -0.0335,0.01359 -0.0449,0.05078 0.13911,0.06513 0.0948,-0.05135 0.0449,-0.05078 z m -0.18946,0.03711 c -0.20725,0.05347 -0.10849,0.117562 -0.27148,0.234375 0.14411,0.237069 0.48637,-0.141057 0.27148,-0.234375 z m -1.32226,4.748047 c -0.0148,0.0066 -0.0266,0.03915 -0.0254,0.117187 0.14454,0.07735 0.0698,-0.136911 0.0254,-0.117187 z m -0.78125,0.826172 c -0.0133,0.0033 -0.0237,0.02444 -0.0215,0.07422 0.13166,0.0579 0.0614,-0.08412 0.0215,-0.07422 z m -0.11914,0.302734 c -0.0123,-2e-5 -0.0222,0.01132 -0.0234,0.04687 0.11541,0.0642 0.0602,-0.04681 0.0234,-0.04687 z m -8.10547,7.466797 c -0.027,-0.01346 -0.0534,0.01774 -0.0684,0.132813 l 0,0.05078 c 0.2318,0.290287 0.14929,-0.143209 0.0684,-0.183594 z m 1.07226,0.458984 c -0.0123,-4.37e-4 -0.0214,0.01259 -0.0234,0.04687 0.11405,0.06593 0.0602,-0.04556 0.0234,-0.04687 z m -1.21484,0.185547 c -0.0122,-0.0029 -0.0261,0.0095 -0.0371,0.04883 0.0969,0.09843 0.0736,-0.04017 0.0371,-0.04883 z m -2.07227,0.951172 c -0.0159,-0.0072 -0.0408,-0.004 -0.0781,0.02148 0.0849,0.114653 0.12567,2e-5 0.0781,-0.02148 z m -2.31054,1.875 c -0.0168,4.27e-4 -0.0327,0.0143 -0.043,0.05078 0.14256,0.06157 0.0933,-0.05206 0.043,-0.05078 z m -0.14649,0.226563 c -0.008,7.65e-4 -0.0158,0.0118 -0.0176,0.04297 0.0763,0.04875 0.0424,-0.04526 0.0176,-0.04297 z M 190.875,66.50778 c -0.009,7.89e-4 -0.0166,0.01222 -0.0195,0.04297 0.0775,0.04778 0.0454,-0.04533 0.0195,-0.04297 z m 1.01172,0.214844 c -0.0115,-0.0026 -0.0293,0.0013 -0.0547,0.01953 0.0648,0.05813 0.0892,-0.01161 0.0547,-0.01953 z m 0.54102,0.197266 c -0.008,-7e-6 -0.0186,0.01046 -0.0332,0.04297 0.053,0.05858 0.058,-0.04295 0.0332,-0.04297 z m 5.21094,0.07031 c -0.0134,5.32e-4 -0.0254,0.01469 -0.0312,0.05469 0.1178,0.0669 0.0714,-0.05628 0.0312,-0.05469 z m -3.41211,0.355469 c -0.0137,-0.0041 -0.0363,0.0088 -0.0684,0.05078 0.0742,0.11514 0.10959,-0.03843 0.0684,-0.05078 z"
     id="rect6"
     style="fill:#006233;fill-opacity:1"
     inkscape:connector-curvature="0" />
  <path
     d="m 433.19727,225.74994 a 150,150 0 1 0 0,150 120,120 0 1 1 0,-150 m 5,75 -135,-44 84,115 0,-142 -84,115 z"
     id="path8"
     inkscape:connector-curvature="0"
     style="fill:#d21034" />
</svg>
